<svg width="424" height="246" viewBox="0 0 424 246" fill="none" xmlns="http://www.w3.org/2000/svg">
<path d="M57.4632 19.3995C57.253 17.2414 56.8626 15.2636 56.914 13.2943C56.9913 10.1666 58.9048 8.06002 62.011 7.60095C67.138 6.84156 71.3554 8.97816 74.6247 12.6035C76.5339 14.7187 78.4303 15.3365 81.1117 15.2464C92.7086 14.8603 104.275 14.2639 115.413 10.6514C119.343 9.37717 123.256 7.89271 126.929 6.0264C139.538 -0.38771 152.598 -0.585065 165.975 2.74427C174.294 4.81223 181.893 8.65211 189.435 12.5864C197.106 16.5893 204.846 20.412 213.272 22.643C222.981 25.2172 232.832 24.6767 242.692 24.1833C262.054 23.2094 281.412 22.4714 300.736 24.8054C317.477 26.8262 333.622 30.8205 348.35 39.397C365.315 49.2777 376.74 63.689 383.24 82.1334C384.132 84.6647 383.823 87.1016 382.987 89.4699C382.03 92.1857 382.635 94.2322 384.407 96.5233C391.996 106.331 398.059 117.117 403.898 128.019C410.14 139.676 416.023 151.517 420.107 164.135C421.265 167.718 421.913 171.472 422.677 175.174C423.102 177.225 422.66 179.122 421.154 180.73C417.112 185.055 413.29 189.603 409.029 193.696C405.58 197.004 401.255 198.372 396.291 198.304C382.566 198.111 368.833 198.239 355.104 198.235C352.238 198.235 351.585 197.326 352.808 194.726C354.426 191.276 356.657 188.346 360.445 187.033C363.208 186.076 365.993 185.175 368.773 184.266C372.411 183.073 372.771 181.885 370.253 179.126C357.124 164.749 341.078 154.692 323.136 147.501C303.593 139.672 283.21 135.591 262.251 134.193C250.024 133.378 237.818 133.455 225.65 135.085C224.599 135.227 223.552 135.411 222.256 135.617C223.157 140.718 224.084 145.674 224.895 150.646C226.641 161.359 229.009 171.995 228.997 182.931C228.984 193.451 225.68 197.107 215.212 198.063C212.938 198.269 210.638 198.231 208.351 198.235C195.051 198.248 181.751 198.244 168.451 198.235C165.383 198.235 164.778 197.257 166.1 194.442C168.065 190.264 171.244 187.496 175.689 186.179C178.087 185.471 180.477 184.729 182.841 183.927C185.115 183.154 185.488 182.438 184.87 180.07C178.58 156.026 165.606 136.274 146.355 120.678C128.28 106.035 107.751 96.5962 84.75 92.8764C79.8547 92.0827 74.792 92.3058 69.8109 92.0398C68.571 91.9711 68.0475 92.5203 67.8716 93.7345C67.6142 95.4978 67.2796 97.2655 66.799 98.9816C66.5717 99.7925 66.0826 100.917 65.4562 101.122C64.8341 101.328 63.7186 100.749 63.1136 100.191C58.686 96.0899 54.018 92.383 48.4663 89.8646C42.9617 87.3676 37.2513 87.4963 31.4249 88.0197C27.7309 88.35 24.0112 88.3801 20.3 88.4444C18.2149 88.4831 16.7819 87.4276 16.134 85.4026C15.4476 83.2574 16.6961 81.966 18.2706 80.9749C20.8063 79.3789 23.5006 78.0231 25.9847 76.3499C27.3019 75.4661 28.3187 74.136 29.4685 73.0077C27.851 73.1364 26.1735 73.0248 24.6333 73.441C20.7805 74.4836 17.0479 75.9981 13.1694 76.899C8.34272 78.0231 6.13747 76.7789 3.71341 72.5314C3.28866 71.7892 2.41342 71.2872 1.7098 70.7209C-0.654192 68.8331 -0.542642 66.4005 1.89429 64.7101C4.64013 62.8052 7.29158 60.763 10.0203 58.8366C15.3918 55.0482 20.7462 51.2383 26.195 47.5615C28.5675 45.9612 30.0263 44.0863 30.6784 41.1517C31.1375 39.0837 32.4975 36.7969 34.1536 35.4927C41.5888 29.632 48.5264 22.9991 57.4546 19.3952L57.4632 19.3995Z" fill="white"/>
<path d="M110.72 110.497C114.379 112.342 117.816 113.895 121.081 115.744C136.53 124.492 149.663 135.866 160.076 150.316C160.968 151.556 161.217 152.538 160.561 153.98C156.112 163.788 151.929 173.724 147.256 183.425C145.583 186.9 143.026 190.045 140.448 192.971C137.178 196.682 132.794 198.269 127.8 198.252C113.431 198.209 99.0583 198.239 84.6899 198.235C81.8368 198.235 81.1846 197.304 82.3902 194.721C84.0764 191.122 86.4661 188.17 90.4218 186.857C93.4723 185.844 96.5013 184.78 99.5775 183.849C102.585 182.936 104.606 181.001 105.987 178.251C108.725 172.793 109.677 166.864 110.544 160.926C112.522 147.364 112.985 133.742 111.861 120.082C111.612 117.04 111.149 114.019 110.724 110.501L110.72 110.497Z" fill="white"/>
<path d="M277.933 145.395C296.797 148.235 314.924 152.937 331.738 162.286C331.571 162.672 331.519 162.96 331.356 163.148C323.702 172.021 316.1 180.941 308.326 189.706C306.309 191.98 303.838 193.893 301.401 195.747C299.075 197.519 296.304 198.244 293.352 198.244C279.052 198.239 264.757 198.252 250.457 198.244C247.372 198.244 246.776 197.313 248.14 194.468C249.796 191.023 252.109 188.191 255.906 186.926C258.815 185.952 261.698 184.883 264.645 184.042C268.228 183.026 270.905 180.859 271.93 177.392C273.608 171.738 275.037 165.989 276.143 160.197C276.972 155.863 277.117 151.397 277.581 146.991C277.632 146.519 277.778 146.055 277.928 145.395L277.933 145.395Z" fill="white"/>
<path fill-rule="evenodd" clip-rule="evenodd" d="M75.456 241.206H16.7103C11.4509 241.206 9.11232 238.737 9.11232 233.435V221.603H0V233.435C0 241.094 6.3608 245.312 12.4313 245.312H75.456V241.206ZM170.278 221.603V241.206H116.574C111.314 241.206 108.976 238.737 108.976 233.435V221.603H99.8605V233.435C99.8605 241.094 106.221 245.312 112.295 245.312H179.393V221.603H170.278ZM282.547 241.206H220.617C215.358 241.206 213.019 238.737 213.019 233.435C213.019 228.092 215.358 225.708 220.617 225.708H282.547V221.603H216.338C210.266 221.603 203.904 225.804 203.904 233.435C203.904 241.094 210.265 245.312 216.338 245.312H282.547V241.206ZM410.649 221.603C416.718 221.603 423.082 225.804 423.082 233.435C423.082 241.094 416.72 245.312 410.649 245.312H342.65V221.603H410.649ZM413.968 233.435C413.968 228.092 411.63 225.708 406.37 225.708H351.764V241.205H406.37C411.63 241.205 413.968 238.737 413.968 233.435ZM308.156 245.956H317.029V221H308.156V245.956Z" fill="white"/>
</svg>
